<svg width="16" height="17" viewBox="0 0 16 17" fill="none" xmlns="http://www.w3.org/2000/svg">
<path d="M6.18747 8.5C6.18747 8.96413 6.37184 9.40925 6.70003 9.73744C7.02822 10.0656 7.47334 10.25 7.93747 10.25C8.4016 10.25 8.84672 10.0656 9.17491 9.73744C9.50309 9.40925 9.68747 8.96413 9.68747 8.5C9.68747 8.03587 9.50309 7.59075 9.17491 7.26256C8.84672 6.93437 8.4016 6.75 7.93747 6.75C7.47334 6.75 7.02822 6.93437 6.70003 7.26256C6.37184 7.59075 6.18747 8.03587 6.18747 8.5ZM14.7218 8.09688C13.2406 4.97656 11.0015 3.40625 7.99997 3.40625C4.99684 3.40625 2.75934 4.97656 1.27809 8.09844C1.21868 8.22425 1.18787 8.36165 1.18787 8.50078C1.18787 8.63991 1.21868 8.77732 1.27809 8.90312C2.75934 12.0234 4.99841 13.5938 7.99997 13.5938C11.0031 13.5938 13.2406 12.0234 14.7218 8.90156C14.8422 8.64844 14.8422 8.35469 14.7218 8.09688ZM7.93747 11.25C6.41872 11.25 5.18747 10.0188 5.18747 8.5C5.18747 6.98125 6.41872 5.75 7.93747 5.75C9.45622 5.75 10.6875 6.98125 10.6875 8.5C10.6875 10.0188 9.45622 11.25 7.93747 11.25Z" fill="#438DB0"/>
</svg>
