<svg width="66" height="105" viewBox="0 0 66 105" fill="none" xmlns="http://www.w3.org/2000/svg">
<g clip-path="url(#clip0_1989_30609)">
<path fill-rule="evenodd" clip-rule="evenodd" d="M19.8033 6.5625L6.6 6.5625C2.9568 6.5625 -4.17433e-06 9.5025 -4.01598e-06 13.125L-2.86856e-07 98.4375C-1.28511e-07 102.06 2.9568 105 6.6 105L59.4 105C63.0465 105 66 102.06 66 98.4375L66 13.125C66 9.5025 63.0465 6.5625 59.4 6.5625L46.2 6.5625C46.2 2.94 43.2465 -1.89036e-06 39.6 -1.73097e-06L26.4033 -1.15413e-06C22.7568 -9.94731e-07 19.8033 2.94 19.8033 6.5625ZM56.1 13.125C57.9249 13.125 59.4 14.595 59.4 16.4062L59.4 95.1562C59.4 96.9708 57.9249 98.4375 56.1 98.4375L9.9 98.4375C8.0751 98.4375 6.6 96.9708 6.6 95.1562L6.6 16.4062C6.6 14.595 8.0751 13.125 9.9 13.125L56.1 13.125Z" fill="#CCCCCC"/>
<path d="M13.2 85.3125C13.2 88.935 16.1568 91.875 19.8033 91.875L46.2 91.875C49.8432 91.875 52.8 88.935 52.8 85.3125C52.8 81.69 49.8432 78.75 46.2 78.75L19.8033 78.75C16.1568 78.75 13.2 81.69 13.2 85.3125Z" fill="#ED7161"/>
</g>
<defs>
<clipPath id="clip0_1989_30609">
<rect width="105" height="66" fill="white" transform="translate(0 105) rotate(-90)"/>
</clipPath>
</defs>
</svg>
