<svg width="66" height="105" viewBox="0 0 66 105" fill="none" xmlns="http://www.w3.org/2000/svg">
<g clip-path="url(#clip0_1989_31591)">
<path fill-rule="evenodd" clip-rule="evenodd" d="M19.8033 6.5625L6.6 6.5625C2.9568 6.5625 -4.17447e-06 9.49922 -4.01598e-06 13.125L-2.86856e-07 98.4375C-1.28511e-07 102.06 2.9568 105 6.6 105L59.4 105C63.0465 105 66 102.06 66 98.4375L66 13.125C66 9.49922 63.0465 6.5625 59.4 6.5625L46.2 6.5625C46.2 2.93672 43.2465 -1.89036e-06 39.6 -1.73097e-06L26.4033 -1.15413e-06C22.7568 -9.94731e-07 19.8033 2.93672 19.8033 6.5625ZM56.1 13.125C57.9249 13.125 59.4 14.5917 59.4 16.4062L59.4 95.1562C59.4 96.9675 57.9249 98.4375 56.1 98.4375L9.9 98.4375C8.0751 98.4375 6.6 96.9708 6.6 95.1562L6.6 16.4062C6.6 14.5917 8.0751 13.125 9.9 13.125L56.1 13.125Z" fill="#CCCCCC"/>
<path fill-rule="evenodd" clip-rule="evenodd" d="M13.2002 85.3125C13.2002 88.935 16.157 91.875 19.8035 91.875L46.2002 91.875C49.8434 91.875 52.8002 88.9383 52.8002 85.3125C52.8002 81.6867 49.8434 78.75 46.2002 78.75L19.8035 78.75C16.157 78.75 13.2002 81.6867 13.2002 85.3125ZM13.2002 65.625C13.2002 69.2475 16.157 72.1875 19.8035 72.1875L46.2002 72.1875C49.8434 72.1875 52.8002 69.2475 52.8002 65.625C52.8002 61.9992 49.8434 59.0625 46.2002 59.0625L19.8035 59.0625C16.157 59.0625 13.2002 61.9992 13.2002 65.625ZM13.2002 45.9375C13.2002 49.56 16.157 52.5 19.8035 52.5L46.2002 52.5C49.8434 52.5 52.8002 49.5633 52.8002 45.9375C52.8002 42.3117 49.8434 39.375 46.2002 39.375L19.8035 39.375C16.157 39.375 13.2002 42.3117 13.2002 45.9375ZM13.2002 26.25C13.2002 29.8725 16.157 32.8125 19.8035 32.8125L46.2002 32.8125C49.8434 32.8125 52.8002 29.8758 52.8002 26.25C52.8002 22.6242 49.8434 19.6875 46.2002 19.6875L19.8035 19.6875C16.157 19.6875 13.2002 22.6242 13.2002 26.25Z" fill="#88C057"/>
</g>
<defs>
<clipPath id="clip0_1989_31591">
<rect width="105" height="66" fill="white" transform="translate(0 105) rotate(-90)"/>
</clipPath>
</defs>
</svg>
