<svg width="16" height="16" viewBox="0 0 16 16" fill="none" xmlns="http://www.w3.org/2000/svg">
<path fill-rule="evenodd" clip-rule="evenodd" d="M8.00004 1.3335C4.32004 1.3335 1.33337 4.32016 1.33337 8.00016C1.33337 11.6802 4.32004 14.6668 8.00004 14.6668C11.68 14.6668 14.6667 11.6802 14.6667 8.00016C14.6667 4.32016 11.68 1.3335 8.00004 1.3335ZM8.00004 8.66683C7.63337 8.66683 7.33337 8.36683 7.33337 8.00016V5.3335C7.33337 4.96683 7.63337 4.66683 8.00004 4.66683C8.36671 4.66683 8.66671 4.96683 8.66671 5.3335V8.00016C8.66671 8.36683 8.36671 8.66683 8.00004 8.66683ZM7.33337 10.0002V11.3335H8.66671V10.0002H7.33337Z" fill="#DA1414"/>
<g mask="url(#mask0_3419_25215)">
</g>
</svg>
