<svg width="20" height="21" viewBox="0 0 20 21" fill="none" xmlns="http://www.w3.org/2000/svg">
<path d="M14.1663 8.00008V6.33342C14.1663 4.00008 12.333 2.16675 9.99967 2.16675C7.66634 2.16675 5.83301 4.00008 5.83301 6.33342V8.00008C4.41634 8.00008 3.33301 9.08342 3.33301 10.5001V16.3334C3.33301 17.7501 4.41634 18.8334 5.83301 18.8334H14.1663C15.583 18.8334 16.6663 17.7501 16.6663 16.3334V10.5001C16.6663 9.08342 15.583 8.00008 14.1663 8.00008ZM7.49967 6.33342C7.49967 4.91675 8.58301 3.83341 9.99967 3.83341C11.4163 3.83341 12.4997 4.91675 12.4997 6.33342V8.00008H7.49967V6.33342ZM10.9163 13.4167L10.833 13.5001V14.6667C10.833 15.1667 10.4997 15.5001 9.99967 15.5001C9.49967 15.5001 9.16634 15.1667 9.16634 14.6667V13.5001C8.66634 13.0001 8.58301 12.2501 9.08301 11.7501C9.58301 11.2501 10.333 11.1667 10.833 11.6667C11.333 12.0834 11.4163 12.9167 10.9163 13.4167Z" fill="#438DB0"/>
</svg>
