<svg width="66" height="66" viewBox="0 0 66 66" fill="none" xmlns="http://www.w3.org/2000/svg">
<circle cx="33" cy="33" r="33" fill="#EDF6F7"/>
<path d="M40.9606 28.2238V25.0396C40.9606 20.5817 37.4579 17.0791 33 17.0791C28.5421 17.0791 25.0395 20.5817 25.0395 25.0396V28.2238C22.3329 28.2238 20.2632 30.2936 20.2632 33.0002V44.1449C20.2632 46.8515 22.3329 48.9212 25.0395 48.9212H40.9606C43.6671 48.9212 45.7369 46.8515 45.7369 44.1449V33.0002C45.7369 30.2936 43.6671 28.2238 40.9606 28.2238ZM28.2237 25.0396C28.2237 22.333 30.2934 20.2633 33 20.2633C35.7066 20.2633 37.7763 22.333 37.7763 25.0396V28.2238H28.2237V25.0396ZM34.7513 38.5725L34.5921 38.7317V40.9607C34.5921 41.9159 33.9553 42.5528 33 42.5528C32.0448 42.5528 31.4079 41.9159 31.4079 40.9607V38.7317C30.4527 37.7765 30.2934 36.3436 31.2487 35.3883C32.204 34.4331 33.6369 34.2738 34.5921 35.2291C35.5474 36.0252 35.7066 37.6173 34.7513 38.5725Z" fill="#438DB0"/>
</svg>
