<svg width="24" height="24" viewBox="0 0 24 24" fill="none" xmlns="http://www.w3.org/2000/svg">
<path d="M18.3 3H5.7C4.98416 3.00078 4.29785 3.2855 3.79167 3.79167C3.2855 4.29785 3.00078 4.98416 3 5.7V6.75469C3.00083 7.12674 3.07891 7.49456 3.22928 7.83486C3.23698 7.85398 3.24879 7.86958 3.25774 7.88803C3.38857 8.17589 3.56909 8.43845 3.79102 8.66367L9.3 14.1727V20.1C9.30003 20.2534 9.33927 20.4043 9.41398 20.5382C9.4887 20.6722 9.59641 20.7849 9.72691 20.8655C9.8574 20.9462 10.0063 20.9922 10.1596 20.9991C10.3128 21.006 10.4653 20.9736 10.6025 20.9051L14.2025 19.1051C14.352 19.0303 14.4777 18.9154 14.5656 18.7732C14.6534 18.631 14.7 18.4671 14.7 18.3V14.1727L20.209 8.6637C20.4308 8.43859 20.6112 8.17619 20.742 7.8885C20.7511 7.86983 20.7631 7.85401 20.7708 7.83467C20.9212 7.49443 20.9992 7.12667 21 6.75469V5.7C20.9992 4.98416 20.7145 4.29785 20.2083 3.79167C19.7021 3.2855 19.0158 3.00078 18.3 3ZM19.2 6.6H4.8V5.7C4.80016 5.46135 4.89503 5.23253 5.06378 5.06378C5.23253 4.89503 5.46135 4.80016 5.7 4.8H18.3C18.5386 4.80016 18.7675 4.89503 18.9362 5.06378C19.105 5.23253 19.1998 5.46135 19.2 5.7V6.6Z" />
</svg>
