<svg width="24" height="24" viewBox="0 0 24 24" fill="none" xmlns="http://www.w3.org/2000/svg">
<path d="M16.5 15H7.5V18H16.5V15Z" fill="#438DB0"/>
<path d="M12 2C10.5759 2.00319 9.18195 2.40096 7.98056 3.147C6.77918 3.89304 5.81974 4.95665 5.21397 6.214C4.60819 7.47135 4.381 8.87069 4.55885 10.2491C4.7367 11.6275 5.31227 12.9283 6.21855 14H17.7815C18.6877 12.9283 19.2633 11.6275 19.4411 10.2491C19.619 8.87069 19.3918 7.47135 18.786 6.214C18.1803 4.95665 17.2208 3.89304 16.0194 3.147C14.818 2.40096 13.4241 2.00319 12 2ZM11.3166 22H12.6834C13.4711 22.0002 14.2347 21.7348 14.8449 21.2489C15.4551 20.7629 15.8744 20.0862 16.032 19.3333H7.96802C8.12556 20.0862 8.54492 20.7629 9.15513 21.2489C9.76533 21.7348 10.5289 22.0002 11.3166 22Z" fill="#438DB0"/>
</svg>
