<svg width="27" height="27" viewBox="0 0 27 27" fill="none" xmlns="http://www.w3.org/2000/svg">
<path d="M16.875 20.25H10.125C9.90122 20.25 9.68661 20.3389 9.52838 20.4971C9.37014 20.6554 9.28125 20.87 9.28125 21.0938C9.28125 22.2126 9.72572 23.2857 10.5169 24.0769C11.3081 24.868 12.3811 25.3125 13.5 25.3125C14.6189 25.3125 15.6919 24.868 16.4831 24.0769C17.2743 23.2857 17.7188 22.2126 17.7188 21.0938C17.7188 20.87 17.6299 20.6554 17.4716 20.4971C17.3134 20.3389 17.0988 20.25 16.875 20.25Z" fill="#438DB0"/>
<path d="M20.5791 11.7535C20.4903 9.93579 19.7058 8.22188 18.3879 6.96682C17.07 5.71176 15.3199 5.01172 13.5 5.01172C11.6802 5.01172 9.93004 5.71176 8.61218 6.96682C7.29433 8.22188 6.50975 9.93579 6.42098 11.7535L5.90629 21.0432C5.89884 21.1586 5.91523 21.2744 5.95442 21.3833C5.99361 21.4921 6.05477 21.5918 6.1341 21.676C6.2135 21.7593 6.30911 21.8255 6.41503 21.8704C6.52096 21.9154 6.63496 21.9383 6.75004 21.9375H20.25C20.3651 21.9383 20.4791 21.9154 20.5851 21.8704C20.691 21.8255 20.7866 21.7593 20.866 21.676C20.9453 21.5918 21.0065 21.4921 21.0457 21.3833C21.0849 21.2744 21.1012 21.1586 21.0938 21.0432L20.5791 11.7535Z" fill="#9ABFD1"/>
<path d="M4.57319 10.1255C4.49775 10.1377 4.42082 10.1377 4.34538 10.1255C4.1309 10.0645 3.94927 9.92112 3.84018 9.72665C3.73109 9.53219 3.70341 9.30245 3.76319 9.08764C4.13052 7.7264 4.78664 6.46021 5.68694 5.37514C5.83496 5.22756 6.0325 5.14018 6.24127 5.12992C6.45004 5.11967 6.65519 5.18727 6.81696 5.31963C6.97874 5.45199 7.08562 5.63969 7.11691 5.84636C7.1482 6.05303 7.10166 6.26395 6.98631 6.43827C6.24401 7.33929 5.69799 8.38535 5.38319 9.50952C5.3336 9.68635 5.22768 9.84217 5.08149 9.95333C4.9353 10.0645 4.75684 10.1249 4.57319 10.1255ZM22.4269 10.1255C22.2376 10.1325 22.0513 10.0755 21.8983 9.96377C21.7452 9.85203 21.6342 9.69202 21.5832 9.50952C21.2684 8.38535 20.7224 7.33929 19.9801 6.43827C19.8647 6.26395 19.8182 6.05303 19.8495 5.84636C19.8808 5.63969 19.9876 5.45199 20.1494 5.31963C20.3112 5.18727 20.5163 5.11967 20.7251 5.12992C20.9339 5.14018 21.1314 5.22756 21.2794 5.37514C22.1755 6.45031 22.8314 7.70458 23.2032 9.05389C23.2386 9.16022 23.2524 9.27253 23.2439 9.38427C23.2354 9.49601 23.2047 9.60493 23.1537 9.70468C23.1026 9.80444 23.0322 9.89302 22.9465 9.96526C22.8609 10.0375 22.7617 10.092 22.6548 10.1255C22.5793 10.1377 22.5024 10.1377 22.4269 10.1255V10.1255Z" fill="#438DB0"/>
<path d="M13.5 6.75C14.898 6.75 16.0312 5.61672 16.0312 4.21875C16.0312 2.82078 14.898 1.6875 13.5 1.6875C12.102 1.6875 10.9688 2.82078 10.9688 4.21875C10.9688 5.61672 12.102 6.75 13.5 6.75Z" fill="#2D748E"/>
</svg>
