<svg width="27" height="27" viewBox="0 0 27 27" fill="none" xmlns="http://www.w3.org/2000/svg">
<path d="M16.875 20.25H10.125C9.90122 20.25 9.68661 20.3389 9.52838 20.4971C9.37015 20.6554 9.28125 20.87 9.28125 21.0938C9.28125 22.2126 9.72572 23.2857 10.5169 24.0769C11.3081 24.868 12.3811 25.3125 13.5 25.3125C14.6189 25.3125 15.6919 24.868 16.4831 24.0769C17.2743 23.2857 17.7188 22.2126 17.7188 21.0938C17.7188 20.87 17.6299 20.6554 17.4716 20.4971C17.3134 20.3389 17.0988 20.25 16.875 20.25Z" fill="#438DB0"/>
<path d="M20.5791 11.7535C20.4903 9.93579 19.7058 8.22188 18.3879 6.96682C17.07 5.71176 15.3199 5.01172 13.5 5.01172C11.6802 5.01172 9.93004 5.71176 8.61218 6.96682C7.29433 8.22188 6.50975 9.93579 6.42098 11.7535L5.90629 21.0432C5.89884 21.1586 5.91523 21.2744 5.95442 21.3833C5.99361 21.4921 6.05477 21.5918 6.1341 21.676C6.2135 21.7593 6.30911 21.8255 6.41503 21.8704C6.52096 21.9154 6.63496 21.9383 6.75004 21.9375H20.25C20.3651 21.9383 20.4791 21.9154 20.5851 21.8704C20.691 21.8255 20.7866 21.7593 20.866 21.676C20.9453 21.5918 21.0065 21.4921 21.0457 21.3833C21.0849 21.2744 21.1012 21.1586 21.0938 21.0432L20.5791 11.7535Z" fill="#9ABFD1"/>
<path d="M13.5 6.75C14.898 6.75 16.0312 5.61672 16.0312 4.21875C16.0312 2.82078 14.898 1.6875 13.5 1.6875C12.102 1.6875 10.9688 2.82078 10.9688 4.21875C10.9688 5.61672 12.102 6.75 13.5 6.75Z" fill="#438DB0"/>
<rect x="4.11768" y="4.5" width="26.7466" height="1.125" rx="0.5625" transform="rotate(41.3175 4.11768 4.5)" fill="#438DB0"/>
</svg>
