<svg width="24" height="24" viewBox="0 0 24 24" fill="none" xmlns="http://www.w3.org/2000/svg">
<path d="M12 14C8.68629 14 6 11.3137 6 8C6 4.68629 8.68629 2 12 2C15.3137 2 18 4.68629 18 8C17.9964 11.3122 15.3122 13.9964 12 14Z" />
<path d="M15.7006 12.7133C14.6808 13.5154 13.3979 13.9984 12 13.9999C10.6002 13.9999 9.31539 13.5166 8.2947 12.713C4.98196 14.0388 2.48715 17.0972 2.06546 20.8915C2.00577 21.4406 2.40225 21.934 2.9512 21.9941L20.9395 21.9999C20.976 21.9999 21.0125 21.9979 21.0489 21.9941C21.5978 21.934 21.9943 21.4406 21.9346 20.8915C21.5192 17.1543 19.063 14.0537 15.7006 12.7133Z"/>
</svg>
