<svg width="20" height="20" viewBox="0 0 20 20" fill="none" xmlns="http://www.w3.org/2000/svg">
<path d="M4.28731 2.79421L9.58333 8.09004L14.8576 2.81601C14.95 2.71763 15.0613 2.63893 15.1849 2.58463C15.3085 2.53033 15.4418 2.50154 15.5768 2.5C15.8658 2.5 16.143 2.6148 16.3473 2.81916C16.5517 3.02351 16.6665 3.30068 16.6665 3.58968C16.669 3.72327 16.6442 3.85598 16.5936 3.97965C16.5431 4.10332 16.4677 4.21535 16.3723 4.30886L11.0436 9.5829L16.3723 14.9114C16.5519 15.0871 16.6572 15.3251 16.6665 15.5761C16.6665 15.8651 16.5517 16.1423 16.3473 16.3466C16.143 16.551 15.8658 16.6658 15.5768 16.6658C15.4379 16.6716 15.2993 16.6484 15.1699 16.5977C15.0405 16.5471 14.923 16.4701 14.8249 16.3716L9.58333 11.0758L4.29821 16.3607C4.20613 16.4558 4.09614 16.5317 3.97457 16.5841C3.85299 16.6365 3.72226 16.6642 3.58989 16.6658C3.30088 16.6658 3.02371 16.551 2.81935 16.3466C2.61499 16.1423 2.50018 15.8651 2.50018 15.5761C2.49764 15.4425 2.52242 15.3098 2.57302 15.1862C2.62361 15.0625 2.69895 14.9505 2.7944 14.8569L8.12311 9.5829L2.7944 4.25438C2.6148 4.07868 2.50948 3.84075 2.50018 3.58968C2.50018 3.30068 2.61499 3.02351 2.81935 2.81916C3.02371 2.6148 3.30088 2.5 3.58989 2.5C3.85143 2.50327 4.10206 2.60897 4.28731 2.79421Z" fill="#828282"/>
</svg>
