<svg width="20" height="20" viewBox="0 0 20 20" fill="none" xmlns="http://www.w3.org/2000/svg">
<path d="M12.5 15H7.5C7.33424 15 7.17527 15.0658 7.05806 15.1831C6.94085 15.3003 6.875 15.4592 6.875 15.625C6.875 16.4538 7.20424 17.2487 7.79029 17.8347C8.37634 18.4208 9.1712 18.75 10 18.75C10.8288 18.75 11.6237 18.4208 12.2097 17.8347C12.7958 17.2487 13.125 16.4538 13.125 15.625C13.125 15.4592 13.0592 15.3003 12.9419 15.1831C12.8247 15.0658 12.6658 15 12.5 15Z" fill="#438DB0"/>
<path d="M15.2438 8.70679C15.178 7.36035 14.5968 6.09079 13.6206 5.16111C12.6445 4.23144 11.3481 3.71289 10 3.71289C8.65196 3.71289 7.35557 4.23144 6.37938 5.16111C5.40319 6.09079 4.82202 7.36035 4.75626 8.70679L4.37501 15.588C4.3695 15.6736 4.38163 15.7593 4.41066 15.84C4.43969 15.9206 4.485 15.9944 4.54376 16.0568C4.60258 16.1185 4.6734 16.1675 4.75186 16.2008C4.83032 16.2342 4.91477 16.2511 5.00001 16.2505H15C15.0853 16.2511 15.1697 16.2342 15.2482 16.2008C15.3266 16.1675 15.3974 16.1185 15.4563 16.0568C15.515 15.9944 15.5603 15.9206 15.5894 15.84C15.6184 15.7593 15.6305 15.6736 15.625 15.588L15.2438 8.70679Z" fill="#9ABFD1"/>
<path d="M3.38753 7.49997C3.33165 7.50907 3.27466 7.50907 3.21878 7.49997C3.05991 7.45482 2.92537 7.34861 2.84456 7.20457C2.76375 7.06052 2.74325 6.89034 2.78753 6.73123C3.05963 5.7229 3.54564 4.78498 4.21253 3.98122C4.32218 3.87191 4.4685 3.80718 4.62314 3.79958C4.77779 3.79198 4.92975 3.84206 5.04958 3.94011C5.16942 4.03815 5.24859 4.17719 5.27177 4.33027C5.29494 4.48336 5.26047 4.6396 5.17503 4.76872C4.62518 5.43615 4.22071 6.21101 3.98753 7.04373C3.9508 7.17471 3.87234 7.29014 3.76405 7.37248C3.65576 7.45482 3.52357 7.49959 3.38753 7.49997ZM16.6125 7.49997C16.4722 7.50516 16.3343 7.46297 16.2209 7.38021C16.1075 7.29744 16.0253 7.17891 15.9875 7.04373C15.7543 6.21101 15.3499 5.43615 14.8 4.76872C14.7146 4.6396 14.6801 4.48336 14.7033 4.33027C14.7265 4.17719 14.8056 4.03815 14.9255 3.94011C15.0453 3.84206 15.1973 3.79198 15.3519 3.79958C15.5066 3.80718 15.6529 3.87191 15.7625 3.98122C16.4263 4.77764 16.9121 5.70673 17.1875 6.70622C17.2137 6.78499 17.224 6.86818 17.2177 6.95095C17.2114 7.03372 17.1887 7.1144 17.1509 7.18829C17.113 7.26218 17.0609 7.3278 16.9974 7.38132C16.934 7.43483 16.8605 7.47517 16.7813 7.49997C16.7254 7.50907 16.6684 7.50907 16.6125 7.49997Z" fill="#438DB0"/>
<path d="M10 5C11.0355 5 11.875 4.16053 11.875 3.125C11.875 2.08947 11.0355 1.25 10 1.25C8.96447 1.25 8.125 2.08947 8.125 3.125C8.125 4.16053 8.96447 5 10 5Z" fill="#438DB0"/>
</svg>
