<svg width="24" height="24" viewBox="0 0 24 24" fill="none" xmlns="http://www.w3.org/2000/svg">
<path d="M18.075 5.77756H17.4045L15.9285 4.48172C15.5663 4.17076 15.1025 3.99966 14.6226 4H9.3774C8.89707 3.99969 8.43286 4.17113 8.0706 4.48261L6.6 5.77756H5.925C5.17962 5.75011 4.45354 6.01517 3.90545 6.51479C3.35736 7.01441 3.03183 7.70798 3 8.44391V17.3317C3.03183 18.0677 3.35736 18.7612 3.90545 19.2608C4.45354 19.7605 5.17962 20.0255 5.925 19.9981H18.075C18.8204 20.0255 19.5465 19.7605 20.0945 19.2608C20.6426 18.7612 20.9682 18.0677 21 17.3317V8.44391C20.9682 7.70798 20.6426 7.01441 20.0945 6.51479C19.5465 6.01517 18.8204 5.75011 18.075 5.77756ZM12 16.4429C11.11 16.4429 10.24 16.1823 9.49993 15.694C8.75991 15.2057 8.18314 14.5117 7.84254 13.6996C7.50195 12.8876 7.41283 11.9941 7.58647 11.1321C7.7601 10.27 8.18868 9.47821 8.81802 8.85672C9.44736 8.23522 10.2492 7.81198 11.1221 7.64051C11.995 7.46904 12.8998 7.55705 13.7221 7.8934C14.5443 8.22975 15.2471 8.79933 15.7416 9.53013C16.2361 10.2609 16.5 11.1201 16.5 11.999C16.4986 13.1772 16.024 14.3067 15.1804 15.1398C14.3368 15.9729 13.193 16.4415 12 16.4429Z" fill="#438DB0"/>
</svg>
