<svg width="24" height="24" viewBox="0 0 24 24" fill="none" xmlns="http://www.w3.org/2000/svg">
<path d="M16.5 12C16.5 10.235 15.48 8.71 14 7.975V10.185L16.455 12.64C16.485 12.43 16.5 12.215 16.5 12ZM19 12C19 12.94 18.795 13.825 18.46 14.64L19.975 16.155C20.625 14.91 21 13.5 21 12C21 7.72 18.005 4.14 14 3.23V5.295C16.89 6.155 19 8.83 19 12ZM4.275 3L3 4.275L7.725 9H3V15H7L12 20V13.275L16.255 17.53C15.585 18.045 14.83 18.46 14 18.71V20.775C15.375 20.46 16.63 19.83 17.685 18.965L19.725 21L21 19.725L12 10.725L4.275 3ZM12 4L9.91 6.09L12 8.18V4Z" fill="#438DB0"/>
</svg>
