<svg width="24" height="24" viewBox="0 0 24 24" fill="none" xmlns="http://www.w3.org/2000/svg">
<path d="M15.1566 6.72931C14.8794 6.53012 14.5465 6.42312 14.2051 6.42343H5.47778C5.04421 6.42445 4.62871 6.59727 4.32232 6.90405C4.01593 7.21083 3.84362 7.62654 3.84314 8.06011V16.0586C3.84275 16.2735 3.88475 16.4863 3.96673 16.6849C4.04872 16.8835 4.16908 17.064 4.32092 17.216C4.47276 17.368 4.65311 17.4886 4.85162 17.5708C5.05013 17.653 5.26292 17.6953 5.47778 17.6952H14.2051C14.42 17.6951 14.6327 17.6528 14.8312 17.5705C15.0296 17.4882 15.2099 17.3677 15.3617 17.2157C15.5136 17.0637 15.634 16.8833 15.716 16.6847C15.7981 16.4862 15.8402 16.2734 15.84 16.0586V8.06011C15.8402 7.79992 15.7782 7.54346 15.6594 7.31201C15.5405 7.08055 15.3682 6.88079 15.1566 6.72931ZM19.7726 5.95675C19.6916 5.89643 19.5905 5.86959 19.4903 5.88179C19.3901 5.89399 19.2984 5.94429 19.2342 6.02227L16.6343 9.17239V14.9444L19.2342 18.0945C19.2722 18.1409 19.3202 18.178 19.3747 18.203C19.4291 18.2281 19.4886 18.2404 19.5485 18.239C19.6084 18.2377 19.6672 18.2227 19.7205 18.1953C19.7738 18.1678 19.8201 18.1286 19.856 18.0806C19.9055 18.0118 19.932 17.929 19.9314 17.8442V6.27451C19.9324 6.21268 19.9185 6.15153 19.8908 6.09622C19.8632 6.04091 19.8226 5.99308 19.7726 5.95675Z" fill="#438DB0"/>
</svg>
