<svg width="24" height="24" viewBox="0 0 24 24" fill="none" xmlns="http://www.w3.org/2000/svg">
<path d="M19 2H5C3.3 2 2 3.3 2 5V15C2 16.7 3.3 18 5 18H16.6L20.3 21.7C20.7 22.1 21.3 22.1 21.7 21.7C21.9 21.5 22 21.3 22 21V5C22 3.3 20.7 2 19 2ZM8 11C7.4 11 7 10.6 7 10C7 9.4 7.4 9 8 9C8.6 9 9 9.4 9 10C9 10.6 8.6 11 8 11ZM12 11C11.4 11 11 10.6 11 10C11 9.4 11.4 9 12 9C12.6 9 13 9.4 13 10C13 10.6 12.6 11 12 11ZM16 11C15.4 11 15 10.6 15 10C15 9.4 15.4 9 16 9C16.6 9 17 9.4 17 10C17 10.6 16.6 11 16 11Z" fill="black"/>
</svg>
