<svg width="24" height="24" viewBox="0 0 24 24" fill="none" xmlns="http://www.w3.org/2000/svg">
<path fill-rule="evenodd" clip-rule="evenodd" d="M12.3125 6.25C12.3125 8.035 13.6633 9.4 15.4297 9.4H20.625V18.85C20.625 20.635 19.2742 22 17.5078 22H7.11719C5.35078 22 4 20.635 4 18.85V4.15C4 2.365 5.35078 1 7.11719 1H12.3125V6.25ZM20.0016 7.29997H15.4297C14.8062 7.29997 14.3906 6.87997 14.3906 6.24997V1.62997L20.0016 7.29997ZM9.19531 7.29996H10.2344C10.8578 7.29996 11.2734 7.71996 11.2734 8.34996C11.2734 8.97996 10.8578 9.39996 10.2344 9.39996H9.19531C8.57188 9.39996 8.15625 8.97996 8.15625 8.34996C8.15625 7.71996 8.57188 7.29996 9.19531 7.29996ZM13.8711 16.33L16.261 13.18C16.5727 12.76 16.4688 12.025 16.1571 11.815C15.7414 11.5 15.0141 11.605 14.7024 12.025L12.936 14.335L12.0008 13.495C11.6891 13.285 11.4813 13.18 11.1696 13.18C10.8578 13.285 10.65 13.39 10.4422 13.6L8.36409 16.225C8.05237 16.645 8.15628 17.38 8.57191 17.695C8.98753 18.01 9.71487 17.905 10.0266 17.485L11.3774 15.7L12.3125 16.54H12.4164C12.8321 16.855 13.5594 16.75 13.8711 16.33Z" fill="#438DB0"/>
</svg>
