<svg width="16" height="17" viewBox="0 0 16 17" fill="none" xmlns="http://www.w3.org/2000/svg">
<path d="M9.74407 6.67535C14.082 6.67535 13.7615 6.67443 13.8283 6.67702C13.7891 6.52719 13.7111 6.38546 13.5938 6.26822L12.4045 5.07887C12.1475 4.82184 11.753 4.74712 11.4226 4.89304C11.2452 4.97142 11.0339 4.93186 10.8967 4.79465C10.7595 4.65747 10.7199 4.44609 10.7983 4.2687C10.9442 3.93841 10.8695 3.54378 10.6124 3.28673L9.42315 2.09738C9.07063 1.7449 8.49709 1.74487 8.14456 2.09738L6.65662 3.58538C7.07594 4.00506 9.32584 6.25677 9.74407 6.67535Z" fill="#15546B"/>
<path d="M6.10201 4.13965L3.56677 6.67498H8.63485C8.62567 6.66578 8.43171 6.4716 6.10201 4.13965Z" fill="#15546B"/>
<path d="M14.1037 10.8718C14.4404 10.7415 14.6666 10.4096 14.6666 10.0461V8.3641C14.6666 7.86557 14.261 7.45996 13.7625 7.45996H11.9215V15.1667H13.7625C14.261 15.1667 14.6666 14.7611 14.6666 14.2625V12.5806C14.6666 12.2171 14.4404 11.8852 14.1037 11.7548C13.9229 11.6847 13.8013 11.5073 13.8013 11.3133C13.8013 11.1193 13.9229 10.9419 14.1037 10.8718Z" fill="#438DB0"/>
<path d="M1.33331 8.3641V10.0461C1.33331 10.4096 1.55954 10.7415 1.89622 10.8718C2.07708 10.9419 2.19857 11.1193 2.19857 11.3133C2.19857 11.5073 2.07705 11.6847 1.89619 11.7548C1.55951 11.8852 1.33331 12.217 1.33331 12.5806V14.2625C1.33331 14.7611 1.73891 15.1667 2.23742 15.1667H11.1372V7.45996H2.23742C1.73891 7.45996 1.33331 7.86554 1.33331 8.3641H1.33331ZM4.07841 9.28411H9.96077V10.0684H4.07841V9.28411ZM4.07841 10.8528H9.96077V11.6371H4.07841V10.8528ZM4.07841 12.4215H9.96077V13.2058H4.07841V12.4215Z" fill="#438DB0"/>
</svg>
