<svg width="35" height="35" viewBox="0 0 35 35" fill="none" xmlns="http://www.w3.org/2000/svg">
<path fill-rule="evenodd" clip-rule="evenodd" d="M31.732 27.2943L20.4654 4.74674C19.9025 3.62493 18.7549 2.91675 17.4998 2.91675C16.2448 2.91675 15.0972 3.62493 14.5343 4.74674L3.2677 27.2943C2.75254 28.3209 2.8071 29.5414 3.41181 30.5179C4.01652 31.4945 5.08471 32.0872 6.23324 32.0834H28.7664C29.915 32.0872 30.9832 31.4945 31.5879 30.5179C32.1926 29.5414 32.2471 28.3209 31.732 27.2943ZM17.4999 26.0058C16.8286 26.0058 16.2845 25.4616 16.2845 24.7903C16.2845 24.119 16.8286 23.5748 17.4999 23.5748C18.1711 23.5748 18.7152 24.119 18.7152 24.7903C18.7152 25.4616 18.1711 26.0058 17.4999 26.0058ZM17.4999 21.1438C18.1711 21.1438 18.7152 20.5996 18.7152 19.9283V13.8508C18.7152 13.1795 18.1711 12.6353 17.4999 12.6353C16.8286 12.6353 16.2845 13.1795 16.2845 13.8508V19.9283C16.2845 20.5996 16.8286 21.1438 17.4999 21.1438Z" fill="white"/>
</svg>
