<svg width="35" height="35" viewBox="0 0 35 35" fill="none" xmlns="http://www.w3.org/2000/svg">
<path fill-rule="evenodd" clip-rule="evenodd" d="M32.9987 4.375H3.06224C2.17481 4.375 1.4585 5.05203 1.4585 5.89077V11.6507C1.4585 12.4895 2.17481 13.1665 3.06224 13.1665H4.35594V19.1589C4.35594 26.2931 10.4929 32.0833 18.0305 32.0833C25.568 32.0833 31.705 26.2931 31.705 19.1589V13.1665H32.9987C33.8861 13.1665 34.6024 12.4895 34.6024 11.6507V5.89077C34.6024 5.05203 33.8861 4.375 32.9987 4.375ZM18.0304 26.566C14.8551 26.566 12.2676 24.1205 12.2676 21.1092C12.2676 18.1079 14.8551 15.6625 18.0304 15.6625C21.2058 15.6625 23.7932 18.1079 23.7932 21.1092C23.7932 24.1205 21.2058 26.566 18.0304 26.566ZM4.66596 10.1348H31.3949V7.40644H4.66596V10.1348Z" fill="white"/>
<path d="M18.229 18.9583C17.0208 18.9583 16.0415 19.9355 16.0415 21.1412C16.0415 22.3468 17.0208 23.3333 18.229 23.3333C19.4372 23.3333 20.4165 22.3468 20.4165 21.1412C20.4165 19.9356 19.4372 18.9583 18.229 18.9583Z" fill="white"/>
</svg>
