<svg width="35" height="35" viewBox="0 0 35 35" fill="none" xmlns="http://www.w3.org/2000/svg">
<path d="M25.1562 2.1875V8.75H18.5938V4.375H16.4062V8.75H14.2188V4.375H12.0312V8.75H9.84375V10.9375C7.4389 10.9375 5.46875 12.9078 5.46875 15.3125V26.25H7.65625V15.3125C7.65625 14.0818 8.61293 13.125 9.84375 13.125V32.8125H29.5312V8.75H27.3438V2.1875H25.1562ZM16.4062 10.9375H18.5938H22.9688V13.125H16.4062V10.9375ZM14.2188 15.3125H25.1562V17.5H14.2188V15.3125ZM16.4062 19.6875H22.9688V21.875H16.4062V19.6875ZM19.6875 26.25C20.2677 26.25 20.8241 26.4805 21.2343 26.8907C21.6445 27.3009 21.875 27.8573 21.875 28.4375C21.875 29.0177 21.6445 29.5741 21.2343 29.9843C20.8241 30.3945 20.2677 30.625 19.6875 30.625C19.1073 30.625 18.5509 30.3945 18.1407 29.9843C17.7305 29.5741 17.5 29.0177 17.5 28.4375C17.5 27.8573 17.7305 27.3009 18.1407 26.8907C18.5509 26.4805 19.1073 26.25 19.6875 26.25Z" fill="white"/>
</svg>
