<svg width="35" height="35" viewBox="0 0 35 35" fill="none" xmlns="http://www.w3.org/2000/svg">
<path d="M25.5251 17.546L19.3393 13.962L22.4577 6.48049C22.5666 6.25828 22.6172 6.01211 22.605 5.76501C22.5927 5.51791 22.5179 5.27796 22.3877 5.0676C22.2574 4.85725 22.0759 4.68337 21.8601 4.56224C21.6443 4.44111 21.4013 4.37669 21.1538 4.375C20.8249 4.37422 20.5053 4.48413 20.2465 4.68704L20.1444 4.77452L9.20507 15.127C9.04062 15.2831 8.91477 15.4753 8.83749 15.6885C8.7602 15.9016 8.73359 16.1298 8.75977 16.355C8.78595 16.5802 8.86419 16.7962 8.98832 16.986C9.11244 17.1757 9.27903 17.334 9.47491 17.4483L15.6622 21.0352L12.5073 28.6027C12.3772 28.9114 12.3574 29.2554 12.4514 29.577C12.5454 29.8985 12.7474 30.1778 13.0233 30.3678C13.2992 30.5579 13.6323 30.6471 13.9663 30.6204C14.3003 30.5936 14.6149 30.4527 14.8571 30.2212L25.7964 19.8658C25.9605 19.7096 26.086 19.5173 26.163 19.3043C26.24 19.0912 26.2664 18.8632 26.2401 18.6382C26.2138 18.4132 26.1355 18.1974 26.0114 18.0078C25.8873 17.8182 25.7209 17.6601 25.5251 17.546Z" fill="white"/>
</svg>
