<svg width="35" height="35" viewBox="0 0 35 35" fill="none" xmlns="http://www.w3.org/2000/svg">
<path d="M29.5312 6.5625H5.46875C4.86469 6.5625 4.375 7.05219 4.375 7.65625V18.5938C4.375 19.1978 4.86469 19.6875 5.46875 19.6875H29.5312C30.1353 19.6875 30.625 19.1978 30.625 18.5938V7.65625C30.625 7.05219 30.1353 6.5625 29.5312 6.5625Z" fill="white"/>
<path d="M33.786 26.8516L30.5048 22.4766C30.4139 22.2962 30.2748 22.1445 30.103 22.0383C29.9312 21.9321 29.7333 21.8756 29.5314 21.875H5.46886C5.26688 21.8756 5.06901 21.9321 4.89719 22.0383C4.72537 22.1445 4.58631 22.2962 4.49542 22.4766L1.21417 26.8516C1.13027 27.0181 1.09032 27.2032 1.09813 27.3895C1.10593 27.5758 1.16122 27.757 1.25876 27.9159C1.35629 28.0748 1.49282 28.2061 1.65539 28.2974C1.81796 28.3887 2.00116 28.4369 2.18761 28.4375H16.4064V25.1562C16.4064 24.8662 16.5216 24.588 16.7267 24.3829C16.9318 24.1777 17.21 24.0625 17.5001 24.0625C17.7902 24.0625 18.0684 24.1777 18.2735 24.3829C18.4786 24.588 18.5939 24.8662 18.5939 25.1562V28.4375H32.8126C32.9991 28.4369 33.1823 28.3887 33.3448 28.2974C33.5074 28.2061 33.6439 28.0748 33.7415 27.9159C33.839 27.757 33.8943 27.5758 33.9021 27.3895C33.9099 27.2032 33.8699 27.0181 33.786 26.8516Z" fill="white"/>
</svg>
