<svg width="35" height="35" viewBox="0 0 35 35" fill="none" xmlns="http://www.w3.org/2000/svg">
<path d="M21.875 4.375V10.2083H27.7083L21.875 4.375Z" fill="white"/>
<path d="M16.0463 17.5C14.9666 17.5 14.5835 18.2997 14.5835 18.9844C14.5835 19.6742 15.0385 20.4167 16.0373 20.4167C17.0478 20.4167 17.5002 19.6744 17.5002 18.9387C17.5002 18.2458 17.0453 17.5 16.0463 17.5Z" fill="white"/>
<path d="M27.7082 11.9911H22.0338C20.8257 11.9911 19.8463 11.0455 19.8463 9.87899V4.375H6.77562C6.2553 4.375 5.8335 4.78226 5.8335 5.28465V29.7153C5.8335 30.2177 6.2553 30.625 6.77562 30.625H26.7662C27.2865 30.625 27.7083 30.2181 27.7084 29.7157C27.7088 25.9776 27.7082 11.9911 27.7082 11.9911ZM12.7211 22.285H8.72406V16.034H10.3352V20.8414H12.7211V22.285H12.7211ZM15.7641 22.3729C14.024 22.3729 12.8086 21.0712 12.8086 19.2075C12.8086 17.2871 14.058 15.946 15.8469 15.946C17.587 15.946 18.8023 17.2444 18.8023 19.1035C18.8023 21.362 17.2764 22.3729 15.7641 22.3729ZM24.8175 21.9177C24.1276 22.1744 23.4005 22.341 22.6574 22.341C21.6523 22.341 20.8689 22.0692 20.2623 21.51C19.6798 20.967 19.3457 20.1219 19.3457 19.1914C19.3556 17.2693 20.7498 15.978 22.8148 15.978C23.486 15.978 24.1498 16.1191 24.7407 16.4273L24.3156 17.8154C23.8408 17.5781 23.3386 17.4215 22.7982 17.4215C21.6712 17.4215 20.9983 18.0713 20.9983 19.1595C20.9983 20.2527 21.6371 20.9054 22.7071 20.9054C22.9459 20.9054 23.1156 20.8874 23.223 20.8703V20.0132H22.0879V18.5937H24.8175V21.9177Z" fill="white"/>
</svg>
