<svg width="35" height="35" viewBox="0 0 35 35" fill="none" xmlns="http://www.w3.org/2000/svg">
<path fill-rule="evenodd" clip-rule="evenodd" d="M17.9559 9.1145C17.9559 11.7176 19.9258 13.7083 22.5018 13.7083H30.0783V27.4895C30.0783 30.0926 28.1084 32.0833 25.5324 32.0833H10.3794C7.80339 32.0833 5.8335 30.0926 5.8335 27.4895V6.052C5.8335 3.44888 7.80339 1.45825 10.3794 1.45825H17.9559V9.1145ZM29.1691 10.6457H22.5018C21.5926 10.6457 20.9865 10.0332 20.9865 9.11447V2.37696L29.1691 10.6457ZM13.41 10.6457H14.9253C15.8345 10.6457 16.4406 11.2582 16.4406 12.1769C16.4406 13.0957 15.8345 13.7082 14.9253 13.7082H13.41C12.5008 13.7082 11.8947 13.0957 11.8947 12.1769C11.8947 11.2582 12.5008 10.6457 13.41 10.6457ZM20.2289 23.8144L23.7141 19.2207C24.1687 18.6082 24.0171 17.5363 23.5625 17.2301C22.9564 16.7707 21.8957 16.9238 21.4411 17.5363L18.8651 20.9051L17.5013 19.6801C17.0468 19.3738 16.7437 19.2207 16.2891 19.2207C15.8345 19.3738 15.5315 19.5269 15.2284 19.8332L12.1978 23.6613C11.7432 24.2738 11.8947 25.3457 12.5009 25.8051C13.107 26.2644 14.1677 26.1113 14.6223 25.4988L16.5922 22.8957L17.9559 24.1207H18.1075C18.7136 24.5801 19.7743 24.4269 20.2289 23.8144Z" fill="white"/>
</svg>
