<svg width="33" height="35" viewBox="0 0 33 35" fill="none" xmlns="http://www.w3.org/2000/svg">
<path fill-rule="evenodd" clip-rule="evenodd" d="M26.2272 3.30621L28.8441 0.244083C29.1753 -0.024573 29.6325 -0.0759847 30.015 0.112413C30.3976 0.30081 30.6356 0.694585 30.6246 1.1209V33.9006C30.6272 34.3169 30.393 34.6985 30.0207 34.8846C29.6483 35.0708 29.2025 35.0292 28.871 34.7774L26.2542 31.7152L22.5447 34.7774C22.144 35.0742 21.5965 35.0742 21.1958 34.7774L17.4863 31.7152L13.8038 34.7774C13.4032 35.0742 12.8556 35.0742 12.4549 34.7774L8.74546 31.7152L6.12859 34.7774C5.79711 35.0292 5.35133 35.0708 4.97898 34.8846C4.60663 34.6985 4.37244 34.3169 4.37502 33.9006V1.1209C4.37244 0.7046 4.60663 0.322998 4.97898 0.136818C5.35133 -0.0493634 5.79711 -0.00776891 6.12859 0.244083L8.71848 3.30621L12.428 0.244083C12.8286 -0.0527209 13.3762 -0.0527209 13.7769 0.244083L17.4863 3.30621L21.1688 0.244083C21.5695 -0.0527209 22.1171 -0.0527209 22.5177 0.244083L26.2272 3.30621ZM25.6742 25.1593C25.9796 25.1593 26.2272 24.9117 26.2272 24.6062V23.5136C26.2273 23.3681 26.1686 23.2288 26.0644 23.1272C25.9603 23.0256 25.8196 22.9704 25.6742 22.974H9.29851C9.15309 22.9704 9.01236 23.0256 8.90824 23.1272C8.80411 23.2288 8.74542 23.3681 8.74546 23.5136V24.6062C8.74546 24.9117 8.99307 25.1593 9.29851 25.1593H25.6742ZM26.2272 18.0638C26.2273 18.2093 26.1686 18.3486 26.0644 18.4502C25.9603 18.5518 25.8196 18.607 25.6742 18.6034H9.29851C9.15309 18.607 9.01236 18.5518 8.90824 18.4502C8.80411 18.3486 8.74542 18.2093 8.74546 18.0638V16.9577C8.74542 16.8122 8.80411 16.6729 8.90824 16.5713C9.01236 16.4697 9.15309 16.4144 9.29851 16.4181H25.6742C25.8196 16.4144 25.9603 16.4697 26.0644 16.5713C26.1686 16.6729 26.2273 16.8122 26.2272 16.9577V18.0638ZM26.0644 11.8943C26.1686 11.7927 26.2273 11.6533 26.2272 11.5079V10.4152C26.2272 10.1098 25.9796 9.86214 25.6742 9.86214H9.29851C8.99307 9.86214 8.74546 10.1098 8.74546 10.4152V11.5079C8.74542 11.6533 8.80411 11.7927 8.90824 11.8943C9.01236 11.9959 9.15309 12.0511 9.29851 12.0475H25.6742C25.8196 12.0511 25.9603 11.9959 26.0644 11.8943Z" fill="white"/>
</svg>
