<svg width="24" height="24" viewBox="0 0 24 24" fill="#BDBDBD" xmlns="http://www.w3.org/2000/svg">
<path fill-rule="evenodd" clip-rule="evenodd" d="M21.7592 18.716L14.0335 3.25485C13.6475 2.48561 12.8606 2 12 2C11.1394 2 10.3525 2.48561 9.96649 3.25485L2.24082 18.716C1.88757 19.42 1.92498 20.2569 2.33964 20.9265C2.7543 21.5962 3.48677 22.0026 4.27433 22H19.7257C20.5132 22.0026 21.2457 21.5962 21.6604 20.9265C22.075 20.2569 22.1124 19.42 21.7592 18.716ZM12 17.8325C11.5397 17.8325 11.1666 17.4594 11.1666 16.999C11.1666 16.5387 11.5397 16.1655 12 16.1655C12.4603 16.1655 12.8334 16.5387 12.8334 16.999C12.8334 17.4594 12.4603 17.8325 12 17.8325ZM12 14.4985C12.4603 14.4985 12.8334 14.1254 12.8334 13.665V9.49761C12.8334 9.03729 12.4603 8.66412 12 8.66412C11.5397 8.66412 11.1666 9.03729 11.1666 9.49761V13.665C11.1666 14.1254 11.5397 14.4985 12 14.4985Z" />
</svg>
