<svg width="24" height="24" viewBox="0 0 24 24" fill="none" xmlns="http://www.w3.org/2000/svg">
<path fill-rule="evenodd" clip-rule="evenodd" d="M15.8205 9.36842C16.7972 7.92411 16.9193 6.13709 16.1379 4.5459C15.3809 3.02815 13.9403 2.07344 12.2555 2H11.7671C10.0823 2.07344 8.64164 3.02815 7.88469 4.57038C7.10333 6.13709 7.22541 7.94859 8.20213 9.3929L12.0113 14.9498L15.8205 9.36842ZM12.4264 16.076C12.3287 16.1984 12.1822 16.2963 12.0113 16.2963C11.8404 16.2963 11.6939 16.2229 11.5962 16.076L9.59392 13.1384L7.37191 13.7014V22.0001L16.6507 19.7969V11.4738L15.3565 11.792L12.4264 16.076ZM17.6274 11.6206L21.461 13.3586C21.8028 13.5055 22.0226 13.8727 21.9982 14.2399V20.3109C21.9982 20.6536 21.8517 20.9474 21.5587 21.1432C21.2901 21.339 20.9482 21.3635 20.6308 21.2166L17.6274 19.8458V11.6206ZM6.3952 13.6279L3.39181 12.257C3.24531 12.1836 3.0988 12.1591 2.97671 12.1591C2.78137 12.1591 2.61044 12.2081 2.43952 12.306C2.17092 12.5018 2 12.7956 2 13.1383V19.2093C2 19.601 2.21976 19.9437 2.56161 20.115L6.3952 21.8531V13.6279ZM14.6972 6.70012C14.6972 5.20685 13.5008 4.00734 12.0113 4.00734C10.5218 4.00734 9.32534 5.20685 9.32534 6.70012C9.32534 8.19339 10.5218 9.3929 12.0113 9.3929C13.5008 9.3929 14.6972 8.16891 14.6972 6.70012ZM10.3021 6.70014C10.3021 5.74543 11.059 4.98655 12.0113 4.98655C12.9636 4.98655 13.7205 5.74543 13.7205 6.70014C13.7205 7.65485 12.9636 8.41372 12.0113 8.41372C11.059 8.41372 10.3021 7.65485 10.3021 6.70014Z" fill="#BDBDBD"/>
</svg>
