<svg width="24" height="24" viewBox="0 0 24 24" fill="#BDBDBD" xmlns="http://www.w3.org/2000/svg">
<path fill-rule="evenodd" clip-rule="evenodd" d="M19.3191 12.2222C19.3191 12.5698 19.2889 12.8969 19.2487 13.224L21.3697 14.9107C21.5607 15.064 21.6109 15.34 21.4903 15.5649L19.4799 19.1018C19.3593 19.3267 19.0979 19.4187 18.8667 19.3267L16.3637 18.3044C15.841 18.7031 15.2781 19.0507 14.6649 19.3062L14.283 22.0151C14.2528 22.2604 14.0417 22.4444 13.7904 22.4444H9.76958C9.51828 22.4444 9.30719 22.2604 9.27703 22.0151L8.89505 19.3062C8.28188 19.0507 7.71896 18.7133 7.19625 18.3044L4.69328 19.3267C4.47214 19.4084 4.20073 19.3267 4.08011 19.1018L2.06969 15.5649C1.94907 15.34 1.99933 15.064 2.19032 14.9107L4.31131 13.224C4.2711 12.8969 4.24094 12.5596 4.24094 12.2222C4.24094 11.8849 4.2711 11.5476 4.31131 11.2204L2.19032 9.53378C1.99933 9.38044 1.93902 9.10444 2.06969 8.87956L4.08011 5.34267C4.20073 5.11778 4.46209 5.02578 4.69328 5.11778L7.19625 6.14C7.71896 5.74133 8.28188 5.39378 8.89505 5.13822L9.27703 2.42933C9.30719 2.184 9.51828 2 9.76958 2H13.7904C14.0417 2 14.2528 2.184 14.283 2.42933L14.6649 5.13822C15.2781 5.39378 15.841 5.73111 16.3637 6.14L18.8667 5.11778C19.0879 5.036 19.3593 5.11778 19.4799 5.34267L21.4903 8.87956C21.6109 9.10444 21.5607 9.38044 21.3697 9.53378L19.2487 11.2204C19.2889 11.5476 19.3191 11.8747 19.3191 12.2222ZM8.26178 12.2222C8.26178 14.1951 9.83995 15.8 11.78 15.8C13.7201 15.8 15.2982 14.1951 15.2982 12.2222C15.2982 10.2493 13.7201 8.64445 11.78 8.64445C9.83995 8.64445 8.26178 10.2493 8.26178 12.2222Z" />
</svg>
