<svg width="42" height="42" viewBox="0 0 42 42" fill="none" xmlns="http://www.w3.org/2000/svg">
<path d="M27.0414 38.1414H32.5047C32.7937 38.1414 33.025 37.9101 33.025 37.621C33.025 37.332 32.7937 37.1007 32.5047 37.1007H27.475L25.7406 24.5265L28.3711 22.1273V23.0812C28.3711 23.3703 28.6023 23.6015 28.8914 23.6015C29.1804 23.6015 29.4117 23.3703 29.4117 23.0812V21C29.4117 20.7687 29.2961 20.5085 28.8914 20.5085H25.2203L23.8617 10.6515L25.7984 8.88823V9.84214C25.7984 10.1312 26.0297 10.3625 26.3187 10.3625C26.6078 10.3625 26.839 10.1312 26.839 9.84214V7.76089C26.839 7.44292 26.6078 7.26948 26.3476 7.26948H23.457L22.9945 4.32104C22.9656 4.06089 22.7343 3.88745 22.5031 3.88745H19.4969C19.2367 3.88745 19.0343 4.06089 19.0054 4.32104L18.6008 7.26948H15.7101C15.4211 7.26948 15.1898 7.47183 15.1898 7.76089V9.84214C15.1898 10.1312 15.4211 10.3625 15.7101 10.3625C15.9992 10.3625 16.2304 10.1312 16.2304 9.84214V8.88823L18.1672 10.6515L18.0226 11.6343C18.0226 11.6632 18.0226 11.6921 18.0226 11.721L16.8086 20.4796H13.0797C12.7906 20.4796 12.5594 20.7398 12.5594 20.971V23.0523C12.5594 23.3414 12.7906 23.5726 13.0797 23.5726C13.3687 23.5726 13.6 23.3414 13.6 23.0523V22.0984L16.2304 24.4976L14.4961 37.0718H9.49529C9.20623 37.0718 8.97498 37.3031 8.97498 37.5921C8.97498 37.8812 9.20623 38.1124 9.49529 38.1124H27.0414V38.1414ZM18.3695 16.346L20.1906 17.8781L17.907 19.7859L18.3695 16.346ZM24.0929 19.7859L21.7804 17.8781L23.6015 16.346L24.0929 19.7859ZM25.4804 29.9031L26.3765 36.4359L21.8094 32.8226L25.4804 29.9031ZM21 32.1867L16.9242 28.9492L21 25.1914L25.0758 28.9492L21 32.1867ZM24.7289 24.4109L25.1625 27.6484L21.7515 24.4687L24.4109 22.0117L24.7289 24.4109ZM23.4859 21.5203L21 23.8039L18.514 21.5203H23.4859ZM18.6297 20.5085L21 18.5429L23.3703 20.5085H18.6297ZM21 17.2132L18.8609 15.421L21 14.0046L23.139 15.421L21 17.2132ZM21.925 13.3976L23.1101 12.6171L23.3414 14.3515L21.925 13.3976ZM21 12.7906L19.3234 11.6921L21 10.189L22.6765 11.6921L21 12.7906ZM22.8211 10.4492L21.7515 9.49526L22.5898 8.7437L22.8211 10.4492ZM21 8.83042L20.364 8.25229H21.6359L21 8.83042ZM20.2484 9.49526L19.2078 10.4492L19.439 8.77261L20.2484 9.49526ZM18.8898 12.6171L20.075 13.3976L18.6586 14.3226L18.8898 12.6171ZM17.589 22.0406L20.2484 24.4976L16.8375 27.6484L17.589 22.0406ZM16.5195 29.9031L20.1906 32.8226L15.6234 36.4359L16.5195 29.9031ZM21 33.4585L25.5961 37.1007H16.4039L21 33.4585ZM27.5906 21.5203L25.5961 23.3125L25.3359 21.5203H27.5906ZM24.989 8.25229L23.6883 9.43745L23.5148 8.25229H24.989ZM19.9594 4.89917H22.0695L22.3875 7.26948H19.6414L19.9594 4.89917ZM17.0109 8.25229H18.4562L18.3117 9.43745L17.0109 8.25229ZM14.4094 21.5203H16.664L16.4039 23.3125L14.4094 21.5203Z" fill="url(#paint0_linear_1989_29399)"/>
<rect width="27.75" height="3.08333" rx="0.5" transform="matrix(1 0 0 -1 7.125 39.5)" fill="url(#paint1_linear_1989_29399)"/>
<defs>
<linearGradient id="paint0_linear_1989_29399" x1="21" y1="3.88745" x2="21" y2="38.1414" gradientUnits="userSpaceOnUse">
<stop stop-color="#FECB9B"/>
<stop offset="1" stop-color="#FDB292"/>
</linearGradient>
<linearGradient id="paint1_linear_1989_29399" x1="13.875" y1="0" x2="13.875" y2="3.08333" gradientUnits="userSpaceOnUse">
<stop stop-color="#FECB9B"/>
<stop offset="1" stop-color="#FDB292"/>
</linearGradient>
</defs>
</svg>
