<svg width="42" height="42" viewBox="0 0 42 42" fill="none" xmlns="http://www.w3.org/2000/svg">
<path d="M21 3.5C11.375 3.5 3.5 11.375 3.5 21C3.5 30.625 11.375 38.5 21 38.5C30.6797 38.5 38.5 30.6797 38.5 21C38.5 11.375 30.6797 3.5 21 3.5ZM36.0391 21.5469H32.7031L28.9297 25.3203L30.1328 26.5234C30.3516 26.7422 30.3516 27.0703 30.1328 27.2891C29.9141 27.5078 29.5859 27.5078 29.3672 27.2891L28.4375 26.3594L27.5078 29.8594C27.4531 30.0234 27.2891 30.1875 27.125 30.2422C27.0703 30.2422 27.0156 30.2422 26.9609 30.2422C26.7969 30.2422 26.6875 30.1875 26.5781 30.0781L25.375 28.875L21.5469 32.7031V36.0391H20.4531V32.7031L16.6797 28.9297L15.4766 30.1328C15.3672 30.2422 15.2578 30.2969 15.0938 30.2969C15.0391 30.2969 14.9844 30.2969 14.9297 30.2969C14.7656 30.2422 14.6016 30.0781 14.5469 29.9141L13.6172 26.4141L12.6875 27.3438C12.4688 27.5625 12.1406 27.5625 11.9219 27.3438C11.7031 27.125 11.7031 26.7969 11.9219 26.5781L13.125 25.375L9.29688 21.5469H5.96094V20.4531H9.29688L13.0703 16.6797L11.8672 15.4766C11.7031 15.3125 11.6484 15.1484 11.7031 14.9297C11.7578 14.7656 11.9219 14.6016 12.0859 14.5469L15.5859 13.6172L14.6562 12.6875C14.4375 12.4688 14.4375 12.1406 14.6562 11.9219C14.875 11.7031 15.2031 11.7031 15.4219 11.9219L16.625 13.125L20.3984 9.35156V5.96094H21.4922V9.29688L25.2656 13.0703L26.4688 11.8672C26.6875 11.6484 27.0156 11.6484 27.2344 11.8672C27.4531 12.0859 27.4531 12.4141 27.2344 12.6328L26.3047 13.5625L29.8047 14.4922C29.9688 14.5469 30.1328 14.7109 30.1875 14.875C30.2422 15.0391 30.1875 15.2578 30.0234 15.4219L28.8203 16.625L32.5938 20.3984H35.9297V21.5469H36.0391Z" fill="url(#paint0_linear_2035_37767)"/>
<path d="M26.8274 18.6846C26.7737 18.7385 26.7199 18.7923 26.6662 18.7923C26.5588 18.8462 26.3977 18.8462 26.2903 18.8462C26.2366 18.8462 26.2366 18.8462 26.1829 18.7923C26.0754 18.7385 25.968 18.6308 25.9143 18.4692C25.968 18.6846 25.0013 15.0769 25.0013 15.0231L24.0882 15.9385C23.8734 16.1538 23.5512 16.1538 23.3363 15.9385C23.1215 15.7231 23.1215 15.4 23.3363 15.1846L24.5179 14L21.0269 10.5L17.5358 14L18.7174 15.1846C18.9322 15.4 18.9322 15.7231 18.7174 15.9385C18.5026 16.1538 18.1803 16.1538 17.9655 15.9385L17.0524 15.0231C17.1061 14.8077 16.1394 18.4154 16.1394 18.4692C16.032 18.9 15.4949 19.0077 15.2263 18.6846L14.0448 17.5L10.5 21L13.991 24.5L15.1726 23.3154C15.3875 23.1 15.7097 23.1 15.9246 23.3154C16.1394 23.5308 16.1394 23.8538 15.9246 24.0692L15.0115 24.9846L15.4412 25.0923L18.3951 25.9C18.5563 25.9538 18.7174 26.1154 18.7711 26.2769C18.8248 26.4385 18.7711 26.6538 18.61 26.8154L17.5358 28L21.0269 31.5L24.5179 28L23.3363 26.8154C23.1752 26.6538 23.1215 26.4923 23.1752 26.2769C23.2289 26.1154 23.39 25.9538 23.5512 25.9L26.9885 24.9846L26.0754 24.0692C25.8606 23.8538 25.8606 23.5308 26.0754 23.3154C26.2903 23.1 26.6125 23.1 26.8274 23.3154L28.009 24.5L31.5 21L28.009 17.5L26.8274 18.6846Z" fill="url(#paint1_linear_2035_37767)"/>
<defs>
<linearGradient id="paint0_linear_2035_37767" x1="21" y1="3.5" x2="21" y2="38.5" gradientUnits="userSpaceOnUse">
<stop stop-color="#FECB9B"/>
<stop offset="1" stop-color="#FDB292"/>
</linearGradient>
<linearGradient id="paint1_linear_2035_37767" x1="21" y1="10.5" x2="21" y2="31.5" gradientUnits="userSpaceOnUse">
<stop stop-color="#FECB9B"/>
<stop offset="1" stop-color="#FDB292"/>
</linearGradient>
</defs>
</svg>
