<svg width="42" height="42" viewBox="0 0 42 42" fill="none" xmlns="http://www.w3.org/2000/svg">
<path d="M15.4583 11.2H19.5417C19.9792 11.2 20.2708 10.9025 20.2708 10.4562V5.99375C20.2708 5.5475 19.9792 5.25 19.5417 5.25H16.0417C15.75 5.25 15.3125 5.5475 15.3125 5.845L14.7292 10.3075C14.7292 10.7537 15.0208 11.2 15.4583 11.2ZM22.4583 18.6375H26.9792C27.4167 18.6375 27.7083 18.34 27.7083 17.8937V17.745L27.125 13.2825C27.125 12.985 26.8333 12.6875 26.3958 12.6875H22.4583C22.0208 12.6875 21.7292 12.985 21.7292 13.4312V17.8937C21.7292 18.34 22.0208 18.6375 22.4583 18.6375ZM14 18.34C14.1458 18.4887 14.2917 18.6375 14.5833 18.6375H19.5417C19.9792 18.6375 20.2708 18.34 20.2708 17.8937V13.4312C20.2708 12.985 19.9792 12.6875 19.5417 12.6875H15.0208C14.7292 12.6875 14.4375 12.985 14.2917 13.2825L13.7083 17.745C13.7083 18.0425 13.8542 18.1912 14 18.34ZM12.6875 12.985C12.5417 12.8362 12.3958 12.6875 12.1042 12.6875H7.29167C7 12.6875 6.70833 12.985 6.5625 13.2825L5.39583 17.745C5.25 18.1912 5.54167 18.4887 5.97917 18.6375H6.125H11.5208C11.9583 18.6375 12.25 18.34 12.25 18.0425L12.8333 13.58C12.8333 13.2825 12.8333 13.1337 12.6875 12.985ZM20.2708 28.3062V20.8687C20.2708 20.4225 19.9792 20.125 19.5417 20.125H14.1458C13.7083 20.125 13.4167 20.4225 13.4167 20.72L12.3958 28.1575C12.3958 28.6037 12.6875 28.9012 12.9792 29.05C12.9792 29.05 12.9792 29.05 13.125 29.05H19.5417C19.9792 29.05 20.2708 28.7525 20.2708 28.3062ZM22.4583 11.2H25.9583C26.3958 11.2 26.6875 10.9025 26.6875 10.4562V10.3075L26.1042 5.845C26.1042 5.5475 25.6667 5.25 25.375 5.25H22.4583C22.0208 5.25 21.7292 5.5475 21.7292 5.99375V10.4562C21.7292 10.9025 22.0208 11.2 22.4583 11.2ZM8.02083 11.2H12.5417C12.9792 11.2 13.2708 10.9025 13.2708 10.605L13.8542 6.1425C13.8542 5.69625 13.5625 5.25 13.2708 5.25C13.2708 5.25 13.2708 5.25 13.125 5.25H10.7917C9.47917 5.25 8.3125 6.1425 8.02083 7.48125L7.29167 10.3075C7.14583 10.605 7.4375 11.0512 7.875 11.2C7.875 11.2 7.875 11.2 8.02083 11.2ZM11.2292 20.125H5.54167C5.25 20.125 4.95833 20.4225 4.8125 20.72C4.375 22.505 3.9375 24.1412 3.64583 25.3312C3.5 25.6287 3.5 25.7775 3.5 26.075C3.5 27.7112 4.8125 29.05 6.41667 29.05H10.2083C10.6458 29.05 10.9375 28.7525 10.9375 28.455L11.9583 21.0175C11.9583 20.5712 11.6667 20.125 11.2292 20.125ZM38.3542 25.3312C38.0625 24.1412 37.625 22.505 37.1875 20.72C37.0417 20.4225 36.75 20.125 36.4583 20.125H30.7708C30.3333 20.125 30.0417 20.4225 30.0417 20.8687V21.0175L31.0625 28.455C31.0625 28.7525 31.3542 29.05 31.7917 29.05H35.5833C37.1875 29.05 38.5 27.7112 38.5 26.075C38.5 25.7775 38.5 25.6287 38.3542 25.3312ZM27.2708 20.125H22.4583C22.0208 20.125 21.7292 20.4225 21.7292 20.8687V28.3062C21.7292 28.7525 22.0208 29.05 22.4583 29.05H28.2917C28.7292 29.05 29.0208 28.7525 29.0208 28.3062V28.1575L28 20.72C28 20.4225 27.7083 20.125 27.2708 20.125ZM29.4583 11.2H33.9792C34.4167 11.2 34.7083 10.9025 34.7083 10.4562V10.3075L33.9792 7.63C33.6875 6.1425 32.5208 5.25 31.2083 5.25H28.875C28.4375 5.25 28.1458 5.5475 28.1458 5.99375V6.1425L28.7292 10.605C28.7292 10.9025 29.1667 11.2 29.4583 11.2ZM35.7292 18.6375C36.1667 18.6375 36.4583 18.34 36.4583 17.8937V17.745L35.2917 13.2825C35.2917 12.985 35 12.6875 34.7083 12.6875H29.8958C29.4583 12.6875 29.1667 12.985 29.1667 13.4312V13.58L29.75 18.0425C29.75 18.34 30.0417 18.6375 30.4792 18.6375H35.7292ZM18.8125 30.5375H23.1875C23.625 30.5375 23.9167 30.835 23.9167 31.2812V34.2562C23.9167 34.7025 23.625 35 23.1875 35H18.8125C18.375 35 18.0833 34.7025 18.0833 34.2562V31.2812C18.0833 30.835 18.375 30.5375 18.8125 30.5375Z" fill="url(#paint0_linear_2035_37773)"/>
<defs>
<linearGradient id="paint0_linear_2035_37773" x1="21" y1="5.25" x2="21" y2="35" gradientUnits="userSpaceOnUse">
<stop stop-color="#FECB9B"/>
<stop offset="1" stop-color="#FDB292"/>
</linearGradient>
</defs>
</svg>
